<svg xmlns="http://www.w3.org/2000/svg" version="1.1" viewBox="400 360 800 340">
<path d="M0 0 C62.68502203 0 62.68502203 0 72.8125 7.625 C74.02873047 8.51058594 74.02873047 8.51058594 75.26953125 9.4140625 C75.84058594 9.93742187 76.41164063 10.46078125 77 11 C77 11.66 77 12.32 77 13 C77.66 13 78.32 13 79 13 C80.21875 14.5390625 80.21875 14.5390625 81.5 16.625 C81.9228125 17.29789062 82.345625 17.97078125 82.78125 18.6640625 C87.40133738 27.51922998 87.26620764 38.37153045 85.41796875 48.046875 C82.41663257 56.65344633 75.30877601 62.71990024 69 69 C75.17600304 79.87425566 81.52771738 90.59683731 88.29003906 101.1184082 C89.01852051 102.25475708 89.01852051 102.25475708 89.76171875 103.4140625 C90.410802 104.41880615 90.410802 104.41880615 91.07299805 105.44384766 C92 107 92 107 92 108 C81.77 108 71.54 108 61 108 C59.185 104.803125 57.37 101.60625 55.5 98.3125 C54.38311835 96.38578576 53.26494313 94.45981975 52.14453125 92.53515625 C50.2859956 89.31797452 48.52832212 86.10877097 46.94921875 82.74609375 C45.09069378 78.76057773 45.09069378 78.76057773 41 74 C36.05 73.67 31.1 73.34 26 73 C26 84.55 26 96.1 26 108 C17.42 108 8.84 108 0 108 C0 72.36 0 36.72 0 0 Z " fill="#DE6C9A" transform="translate(945,448)"/>
<path d="M0 0 C0.74475586 0.02223633 1.48951172 0.04447266 2.25683594 0.06738281 C9.75102884 0.31831281 14.59234289 1.53078096 22 4 C22 18.19 22 32.38 22 47 C18.04 46.34 14.08 45.68 10 45 C10 44.34 10 43.68 10 43 C-18.31251314 42.03898278 -18.31251314 42.03898278 -46 47 C-47.96562758 47.56301045 -49.93181332 48.12407444 -51.8984375 48.68359375 C-56.05090218 49.87690894 -60.19556592 51.09354026 -64.3359375 52.328125 C-85.58200268 58.63632237 -106.80889536 63.17015781 -129 60 C-129 40.86 -129 21.72 -129 2 C-120 5 -120 5 -116.91796875 6.1328125 C-109.85538035 8.6991894 -103.48864616 9.76323952 -96 10 C-94.13214844 10.12955078 -94.13214844 10.12955078 -92.2265625 10.26171875 C-78.86044941 10.94651012 -66.43617424 7.73012024 -53.48046875 4.77832031 C-35.5069188 0.75898268 -18.4082454 -0.66235582 0 0 Z " fill="#E479A5" transform="translate(529,479)"/>
<path d="M0 0 C10.56 0 21.12 0 32 0 C32.804375 2.59875 33.60875 5.1975 34.4375 7.875 C37.54988279 17.79517707 40.94584631 27.60881668 44.3671875 37.42578125 C47.21936043 45.61331264 50.03153002 53.81441071 52.83810425 62.01766968 C53.39352101 63.64085637 53.94927292 65.26392843 54.50540161 66.88687134 C57.45295897 75.48869285 60.38155682 84.09672174 63.26953125 92.71875 C63.51458908 93.44719116 63.75964691 94.17563232 64.01213074 94.92614746 C64.24378433 95.62018677 64.47543793 96.31422607 64.71411133 97.02929688 C65.01518547 97.92884094 65.01518547 97.92884094 65.32234192 98.84655762 C66.2766004 101.87897281 67.12665678 104.94329871 68 108 C58.1 108 48.2 108 38 108 C34 94 34 94 34 90 C21.79 90 9.58 90 -3 90 C-3.66 93.3 -4.32 96.6 -5 100 C-5.99 102.64 -6.98 105.28 -8 108 C-17.24 108 -26.48 108 -36 108 C-35.24420548 102.70943837 -34.4653221 99.09060479 -32.625 94.25 C-30.71189085 89.07690888 -29.08077027 83.95432495 -27.7734375 78.59765625 C-27 76 -27 76 -25.61206055 72.80883789 C-24.0041249 69.09568778 -22.68888518 65.30558863 -21.43359375 61.4609375 C-21.19837509 60.74962677 -20.96315643 60.03831604 -20.72080994 59.30545044 C-20.21773135 57.78371168 -19.71591658 56.26155461 -19.215271 54.73901367 C-17.89192608 50.716743 -16.55714204 46.69827305 -15.22265625 42.6796875 C-14.95340332 41.86840393 -14.68415039 41.05712036 -14.40673828 40.22125244 C-11.98310351 32.92831839 -9.52069319 25.64912237 -7.02175903 18.38165283 C-6.3867742 16.53425536 -5.75476011 14.68583764 -5.12280273 12.83740234 C-4.73938721 11.72574707 -4.35597168 10.6140918 -3.9609375 9.46875 C-3.62884277 8.50388672 -3.29674805 7.53902344 -2.95458984 6.54492188 C-2 4 -2 4 0 0 Z " fill="#DF6F9C" transform="translate(1090,448)"/>
<path d="M0 0 C0.12395838 5.44425217 0.2145074 10.8876761 0.2746582 16.33300781 C0.29974245 18.18373938 0.33381845 20.03437247 0.37719727 21.88476562 C0.43811995 24.55102883 0.46626991 27.21597825 0.48828125 29.8828125 C0.51408768 30.70492218 0.5398941 31.52703186 0.56648254 32.37405396 C0.5668602 33.1544101 0.56723785 33.93476624 0.56762695 34.73876953 C0.57873001 35.41827667 0.58983307 36.09778381 0.60127258 36.79788208 C-0.40408912 40.47994755 -1.81833873 42.94050751 -5 45 C-9.43642777 45.91178883 -13.82440438 45.80876195 -18.33984375 45.76049805 C-19.7117756 45.76699472 -21.08369733 45.77605824 -22.45559692 45.78749084 C-26.17487987 45.81054667 -29.89313502 45.79586912 -33.6123848 45.77302146 C-37.5071481 45.75408847 -41.40184315 45.76526645 -45.29663086 45.77192688 C-51.83691713 45.77826513 -58.3767922 45.76001013 -64.91699219 45.72729492 C-72.47497832 45.68980084 -80.03218552 45.6915795 -87.59021282 45.7143361 C-94.86518154 45.73529537 -102.13986278 45.72800545 -109.41482544 45.70801735 C-112.50888291 45.70003727 -115.60269682 45.70201555 -118.69674683 45.71204185 C-122.34142326 45.7226039 -125.9851935 45.70843687 -129.62972641 45.67529869 C-131.60273845 45.66319406 -133.57585326 45.67560559 -135.54885864 45.68875122 C-145.1906837 45.56148259 -145.1906837 45.56148259 -148.27124023 42.64607239 C-150.89846845 38.6247872 -151.12060312 35.72363917 -151.09765625 31.01953125 C-151.09443359 29.85615234 -151.09121094 28.69277344 -151.08789062 27.49414062 C-151.07951172 26.27919922 -151.07113281 25.06425781 -151.0625 23.8125 C-151.05798828 22.58595703 -151.05347656 21.35941406 -151.04882812 20.09570312 C-151.03703065 17.06375332 -151.02056921 14.03190094 -151 11 C-150.12899658 10.98018066 -149.25799316 10.96036133 -148.3605957 10.93994141 C-145.06332459 10.86085758 -141.76642297 10.77414677 -138.46948242 10.68261719 C-137.05484477 10.64482947 -135.64012728 10.60989934 -134.2253418 10.578125 C-122.57014275 10.31332815 -111.19118405 9.52886289 -100 6 C-97.89356338 5.39273265 -95.78525035 4.79196062 -93.67578125 4.1953125 C-92.49314697 3.86080078 -91.3105127 3.52628906 -90.09204102 3.18164062 C-83.7407538 1.40602076 -77.37386036 -0.30743664 -71 -2 C-70.06865234 -2.25168945 -69.13730469 -2.50337891 -68.17773438 -2.76269531 C-47.24654326 -8.27220773 -19.78299953 -10.20386292 0 0 Z " fill="#E36092" transform="translate(551,549)"/>
<path d="M0 0 C1.48294556 0.00616333 1.48294556 0.00616333 2.99584961 0.01245117 C4.06770508 0.01438477 5.13956055 0.01631836 6.24389648 0.01831055 C7.36731445 0.03055664 8.49073242 0.04280273 9.64819336 0.05541992 C11.33912109 0.05638672 11.33912109 0.05638672 13.06420898 0.05737305 C21.44556019 0.10278675 21.44556019 0.10278675 22.58569336 1.24291992 C22.75616019 4.95152063 22.88283695 8.65379042 22.92749023 12.3659668 C23.1162884 17.73573794 23.92344961 21.0395879 27.58569336 25.24291992 C30.94162198 26.57952137 30.94162198 26.57952137 34.58569336 26.24291992 C38.84367712 24.01312324 38.84367712 24.01312324 41.58569336 20.24291992 C41.91569336 13.97291992 42.24569336 7.70291992 42.58569336 1.24291992 C60.73569336 1.24291992 78.88569336 1.24291992 97.58569336 1.24291992 C97.91569336 7.84291992 98.24569336 14.44291992 98.58569336 21.24291992 C101.9556175 25.31037388 101.9556175 25.31037388 104.95288086 25.80932617 C105.78045898 25.80803711 106.60803711 25.80674805 107.46069336 25.80541992 C108.69432617 25.83829102 108.69432617 25.83829102 109.95288086 25.87182617 C113.70589946 24.9753336 116.34395108 23.3492823 118.58569336 20.24291992 C119.38383902 17.17053118 119.38110605 14.21664799 119.33569336 11.05541992 C119.37630601 2.45230727 119.37630601 2.45230727 121.58569336 0.24291992 C124 0 124 0 126.99584961 0.01245117 C128.06770508 0.01438477 129.13956055 0.01631836 130.24389648 0.01831055 C131.36731445 0.03055664 132.49073242 0.04280273 133.64819336 0.05541992 C135.33912109 0.05638672 135.33912109 0.05638672 137.06420898 0.05737305 C145.44556019 0.10278675 145.44556019 0.10278675 146.58569336 1.24291992 C146.67865151 2.68581779 146.70315849 4.13321777 146.69921875 5.57910156 C146.69914322 6.49998062 146.69906769 7.42085968 146.69898987 8.36964417 C146.69382858 9.37067673 146.6886673 10.37170929 146.68334961 11.40307617 C146.68122719 12.93248085 146.68122719 12.93248085 146.67906189 14.49278259 C146.67344433 17.763691 146.66088886 21.03453205 146.64819336 24.30541992 C146.64318062 26.51700748 146.63861732 28.7285961 146.63452148 30.94018555 C146.62346919 36.37445349 146.60671399 41.8086819 146.58569336 47.24291992 C145.72443848 47.17580811 144.86318359 47.10869629 143.97583008 47.03955078 C123.37392591 45.49223359 104.17054761 45.84552733 83.83569336 49.24291992 C70.94220455 51.39296279 58.42053451 52.8307021 45.33569336 52.74291992 C43.35811035 52.73325195 43.35811035 52.73325195 41.34057617 52.72338867 C30.56693246 52.51132006 20.3269752 51.37300156 10.27319336 47.36791992 C9.62286133 47.12428711 8.9725293 46.8806543 8.30249023 46.62963867 C3.78970938 44.88944545 -0.233155 42.67350938 -4.41430664 40.24291992 C-4.46366173 34.86777088 -4.50000466 29.49275308 -4.52416992 24.11743164 C-4.53424148 22.28798119 -4.5478994 20.45854689 -4.56518555 18.62915039 C-4.58938341 16.00297058 -4.60077796 13.37700317 -4.60961914 10.75073242 C-4.61994171 9.92985138 -4.63026428 9.10897034 -4.64089966 8.26321411 C-4.64129848 6.2550285 -4.53680204 4.2473661 -4.41430664 2.24291992 C-2.41430664 0.24291992 -2.41430664 0.24291992 0 0 Z " fill="#E35E8F" transform="translate(404.414306640625,425.757080078125)"/>
<path d="M0 0 C3.48317505 2.83327447 5.63296875 5.51688894 7.86328125 9.453125 C-9.00382115 23.453125 -9.00382115 23.453125 -12.13671875 23.453125 C-12.85859375 22.710625 -13.58046875 21.968125 -14.32421875 21.203125 C-20.83657591 14.83548689 -27.02072694 13.02402043 -35.9765625 13.11328125 C-39.34015049 13.2473837 -39.34015049 13.2473837 -42.51171875 15.515625 C-44.39512122 18.41466685 -44.39512122 18.41466685 -44.32421875 22.015625 C-42.86036489 26.25309669 -40.99349321 27.52903766 -37.13671875 29.453125 C-32.97831321 31.04617188 -28.74864926 32.39795711 -24.51171875 33.765625 C-10.65004377 38.42187069 2.49537563 42.89455593 9.51953125 56.7109375 C10.94892469 60.69163203 11.36416177 64.15104666 11.30078125 68.328125 C11.29320801 69.03066406 11.28563477 69.73320313 11.27783203 70.45703125 C11.0930817 76.29352332 9.99512116 80.56941214 6.86328125 85.453125 C6.45078125 86.14792969 6.03828125 86.84273437 5.61328125 87.55859375 C0.19446692 95.76378704 -8.71553228 100.28742487 -18.13671875 102.453125 C-22.56059001 102.91470624 -26.94121343 102.97780854 -31.38671875 102.953125 C-32.58876953 102.94667969 -33.79082031 102.94023438 -35.02929688 102.93359375 C-49.84168217 102.62751945 -60.73333372 97.79784765 -71.375 87.23046875 C-76.13671875 81.97253883 -76.13671875 81.97253883 -76.13671875 79.453125 C-74.63964844 78.15625 -74.63964844 78.15625 -72.55859375 76.703125 C-71.43517578 75.91421875 -71.43517578 75.91421875 -70.2890625 75.109375 C-69.49628906 74.5628125 -68.70351563 74.01625 -67.88671875 73.453125 C-67.10941406 72.9065625 -66.33210937 72.36 -65.53125 71.796875 C-62.14483821 69.43506985 -58.87331968 67.22827211 -55.13671875 65.453125 C-54.65203125 66.05640625 -54.16734375 66.6596875 -53.66796875 67.28125 C-47.71244926 74.38206171 -42.97347468 78.13769627 -33.69921875 79.390625 C-28.55509622 79.69153467 -23.6136807 79.17866008 -19.13671875 76.453125 C-17.34700192 73.70926891 -17.13406943 72.38026859 -17.01171875 69.015625 C-18.4182754 64.56152895 -19.82741795 63.96187149 -23.68945312 61.68676758 C-28.10236832 59.46226035 -32.75350627 58.02242662 -37.44921875 56.515625 C-50.66877862 52.07053366 -63.62672216 47.38476502 -70.63671875 34.390625 C-73.3922303 27.24853676 -73.39508168 18.899744 -71.32421875 11.58203125 C-66.99271579 1.94142917 -59.47329303 -4.5364645 -49.91015625 -8.671875 C-32.77724659 -14.07718734 -14.31918172 -10.36635459 0 0 Z " fill="#DF6D9A" transform="translate(689.13671875,454.546875)"/>
<path d="M0 0 C10.23 0 20.46 0 31 0 C33.660625 5.1046875 33.660625 5.1046875 36.375 10.3125 C38.58208625 14.54231839 40.79096421 18.77119949 43 23 C43.75917725 24.4543042 43.75917725 24.4543042 44.53369141 25.93798828 C45.91623996 28.58474034 47.30140476 31.23010399 48.6875 33.875 C49.31954346 35.08603394 49.31954346 35.08603394 49.96435547 36.3215332 C51.65712285 39.88578543 51.65712285 39.88578543 54 43 C54.39130348 42.21406212 54.39130348 42.21406212 54.79051208 41.4122467 C57.49702244 35.97716556 60.20630786 30.54347447 62.91723633 25.1105957 C63.92967378 23.08068056 64.94139418 21.05040763 65.95239258 19.01977539 C67.40259098 16.10729952 68.85533207 13.19610457 70.30859375 10.28515625 C70.76278183 9.3716188 71.21696991 8.45808136 71.68492126 7.51686096 C72.10528152 6.67606491 72.52564178 5.83526886 72.95874023 4.96899414 C73.32958237 4.22508926 73.7004245 3.48118439 74.08250427 2.71473694 C75 1 75 1 76 0 C78.29151417 -0.08790975 80.58572524 -0.10694038 82.87890625 -0.09765625 C83.90889992 -0.09553383 83.90889992 -0.09553383 84.95970154 -0.09336853 C87.16067801 -0.08775479 89.36155409 -0.07520007 91.5625 -0.0625 C93.05143083 -0.05748676 94.54036324 -0.05292355 96.02929688 -0.04882812 C99.68623075 -0.03778093 103.34310558 -0.02050713 107 0 C101.88470686 9.84996115 96.4512166 19.44836698 90.74536133 28.96923828 C88.05387772 33.47164062 85.45445538 37.99058819 82.99609375 42.625 C81.14753703 46.06843756 79.19511432 49.19223438 76.82421875 52.296875 C64.59349206 69.12649192 66.48139578 88.1035498 67 108 C58.09 108 49.18 108 40 108 C40.020625 105.34710937 40.04125 102.69421875 40.0625 99.9609375 C40.05524764 97.34260028 40.03434768 94.72469423 40.01220703 92.10644531 C40.00418106 90.31055416 40.0099649 88.51453867 40.03076172 86.71875 C40.16870036 73.7089581 38.47581243 65.74484323 31 55 C30.02032387 53.32929953 29.05852786 51.64788831 28.12109375 49.953125 C27.22664181 48.38537141 26.3321092 46.81766385 25.4375 45.25 C24.94572266 44.38802002 24.45394531 43.52604004 23.94726562 42.63793945 C20.99295049 37.46651515 18.02225886 32.30489307 15.03515625 27.15234375 C14.35814611 25.98340318 13.68114413 24.81445788 13.00415039 23.64550781 C11.69679221 21.38976153 10.38747564 19.13514879 9.07592773 16.88183594 C8.47337158 15.84188477 7.87081543 14.80193359 7.25 13.73046875 C6.71890625 12.81676514 6.1878125 11.90306152 5.640625 10.96166992 C3.64939163 7.36707885 1.83772116 3.67544232 0 0 Z " fill="#DF6E9B" transform="translate(817,448)"/>
<path d="M0 0 C28.38 0 56.76 0 86 0 C86 7.92 86 15.84 86 24 C76.1 24 66.2 24 56 24 C56 52.38 56 80.76 56 110 C47.09 110 38.18 110 29 110 C29 81.62 29 53.24 29 24 C19.43 24 9.86 24 0 24 C0 16.08 0 8.16 0 0 Z " fill="#DF6F9B" transform="translate(714,446)"/>
<path d="M0 0 C0.12381149 5.46256275 0.21443826 10.92430488 0.2746582 16.38793945 C0.29976702 18.24550609 0.33386134 20.10297427 0.37719727 21.96020508 C0.43801124 24.63387358 0.4662452 27.30623365 0.48828125 29.98046875 C0.51408768 30.80773972 0.5398941 31.63501068 0.56648254 32.48735046 C0.56864387 36.95376474 0.42869919 38.48096998 -2.53051758 42.0637207 C-3.34544678 42.70269287 -4.16037598 43.34166504 -5 44 C-6.010625 43.319375 -7.02125 42.63875 -8.0625 41.9375 C-14.39249834 37.9923954 -21.18949372 35.00402996 -28 32 C-29.11890625 31.505 -30.2378125 31.01 -31.390625 30.5 C-55.8418153 20.22826709 -81.90114741 14.25750513 -108 10 C-105.48234865 6.22352297 -103.24293451 6.03352909 -99.0625 5.125 C-97.59988303 4.78547581 -96.13765806 4.44425955 -94.67578125 4.1015625 C-93.90830566 3.92399414 -93.14083008 3.74642578 -92.35009766 3.56347656 C-89.24896267 2.81992581 -86.17748934 1.98153301 -83.10205078 1.13891602 C-79.88376617 0.26469442 -76.65503393 -0.56502569 -73.42236328 -1.38427734 C-71.8432149 -1.78566942 -70.26593273 -2.19449911 -68.69091797 -2.61181641 C-47.53781627 -8.11333784 -20.02813971 -10.33030364 0 0 Z " fill="#E580AA" transform="translate(551,549)"/>
<path d="M0 0 C8.07574632 6.8629053 12.79672473 15.34433293 15.0625 25.6875 C15.1539154 27.01939204 15.20025718 28.35493697 15.20776367 29.68994141 C15.21414352 30.46399323 15.22052338 31.23804504 15.22709656 32.03555298 C15.22820938 32.86171112 15.2293222 33.68786926 15.23046875 34.5390625 C15.23546135 35.82192642 15.23546135 35.82192642 15.24055481 37.13070679 C15.24560865 38.93446313 15.24796361 40.73822878 15.24780273 42.54199219 C15.24999754 45.3093993 15.26819203 48.07641295 15.28710938 50.84375 C15.29004189 52.5963528 15.29202763 54.3489575 15.29296875 56.1015625 C15.30015427 56.9317691 15.30733978 57.76197571 15.31474304 58.61734009 C15.29133483 64.45866517 15.29133483 64.45866517 13.0625 66.6875 C9.5625 66.9375 9.5625 66.9375 6.0625 66.6875 C3.62515368 64.25015368 3.82229088 62.93701238 3.78604126 59.61051941 C3.78703827 58.91791519 3.78803528 58.22531097 3.7890625 57.51171875 C3.76873188 56.02798782 3.74788047 54.54426395 3.7265625 53.06054688 C3.70420583 50.73521003 3.68758994 48.41015524 3.68164062 46.0847168 C3.62822993 33.68942861 3.29829091 20.72229957 -5.9453125 11.33984375 C-10.97258404 7.17016559 -16.32699491 4.0922248 -22.9375 3.6875 C-23.68773437 3.63722656 -24.43796875 3.58695312 -25.2109375 3.53515625 C-33.69137674 3.20898551 -41.36264522 5.1131666 -47.9375 10.6875 C-54.64071279 18.77660911 -57.20957932 25.97855198 -57.28125 36.39453125 C-57.2958728 37.20113693 -57.31049561 38.00774261 -57.32556152 38.83879089 C-57.3874719 42.2633849 -57.42763911 45.68814543 -57.46923828 49.11303711 C-57.50286893 51.62373054 -57.54796616 54.13403488 -57.59375 56.64453125 C-57.5990271 57.42157913 -57.6043042 58.19862701 -57.60974121 58.9992218 C-57.71179454 64.46179454 -57.71179454 64.46179454 -59.9375 66.6875 C-61.8125 66.953125 -61.8125 66.953125 -63.9375 66.9375 C-64.63875 66.94265625 -65.34 66.9478125 -66.0625 66.953125 C-67.9375 66.6875 -67.9375 66.6875 -69.9375 64.6875 C-70.15003899 62.1018923 -70.24147011 59.62641061 -70.23828125 57.0390625 C-70.24256638 56.27129486 -70.2468515 55.50352722 -70.25126648 54.7124939 C-70.25701962 53.07998641 -70.25750282 51.44745329 -70.25317383 49.81494141 C-70.25005597 47.35662737 -70.27331002 44.89956757 -70.29882812 42.44140625 C-70.36261642 26.97181138 -68.06410561 14.2396783 -57.3125 2.4375 C-41.76328665 -12.30435035 -16.86582433 -12.23543995 0 0 Z " fill="#E25B8D" transform="translate(501.9375,379.3125)"/>
<path d="M0 0 C3.67125 -0.061875 7.3425 -0.12375 11.125 -0.1875 C12.84420654 -0.22846802 12.84420654 -0.22846802 14.59814453 -0.27026367 C21.52306382 -0.32672672 25.9427042 0.42543512 31.375 5 C33.85737358 9.58284354 33.75495915 13.90215705 33 19 C31.01031547 22.91075925 29.63466354 24.57689098 26 27 C22.59687453 27.88873216 19.42548083 28.11917473 15.91796875 28.09765625 C15.0777417 28.09515869 14.23751465 28.09266113 13.37182617 28.09008789 C12.32099854 28.08098389 11.2701709 28.07187988 10.1875 28.0625 C5.1446875 28.0315625 5.1446875 28.0315625 0 28 C0 18.76 0 9.52 0 0 Z " fill="#FDFAFB" transform="translate(971,471)"/>
<path d="M0 0 C7.61332332 0.09411445 15.22635015 0.20033346 22.83935547 0.31738281 C25.42492143 0.35547705 28.01053686 0.39036264 30.59619141 0.421875 C34.32993152 0.46795278 38.06333672 0.5258743 41.796875 0.5859375 C43.50855865 0.60326431 43.50855865 0.60326431 45.25482178 0.62094116 C52.66629306 0.7547886 59.72578182 1.57620273 67 3 C57.38776952 12.61223048 27.43931666 14.17594283 14.4375 14.1875 C13.70853516 14.19974609 12.97957031 14.21199219 12.22851562 14.22460938 C7.75892812 14.23667847 4.21221798 13.68355632 0 12 C0 8.04 0 4.08 0 0 Z " fill="#C7457D" transform="translate(401,526)"/>
<path d="M0 0 C2.23416562 2.23416562 2.69425689 3.61213898 3.65625 6.5859375 C3.95587646 7.51196777 4.25550293 8.43799805 4.56420898 9.39208984 C4.87302002 10.3764502 5.18183105 11.36081055 5.5 12.375 C5.81461182 13.36838379 6.12922363 14.36176758 6.45336914 15.38525391 C8.58292582 22.26432305 10.12943364 28.84200991 11 36 C4.07 36 -2.86 36 -10 36 C-8.67188812 27.63289514 -6.5388886 19.84652444 -3.875 11.8125 C-3.50246094 10.66974609 -3.12992188 9.52699219 -2.74609375 8.34960938 C-1.83706718 5.56425873 -0.92162358 2.78120249 0 0 Z " fill="#FDF9FB" transform="translate(1105,479)"/>
<path d="M0 0 C3.125 -0.1875 3.125 -0.1875 6 0 C6 0.99 6 1.98 6 3 C3.36 3 0.72 3 -2 3 C-1.34 2.01 -0.68 1.02 0 0 Z " fill="#E993B6" transform="translate(445,556)"/>
<path d="M0 0 C2.64 0.33 5.28 0.66 8 1 C5.4345406 3.5654594 3.52313332 3.54046087 0 4 C-0.33 3.34 -0.66 2.68 -1 2 C-0.67 1.34 -0.34 0.68 0 0 Z " fill="#D05287" transform="translate(460,528)"/>
</svg>